<?xml version="1.0" standalone="no"?>
<!DOCTYPE svg PUBLIC "-//W3C//DTD SVG 20010904//EN"
 "http://www.w3.org/TR/2001/REC-SVG-20010904/DTD/svg10.dtd">
<svg version="1.0" xmlns="http://www.w3.org/2000/svg"
 width="256.000000pt" height="256.000000pt" viewBox="0 0 256.000000 256.000000"
 preserveAspectRatio="xMidYMid meet">
<metadata>
Created by potrace 1.11, written by Peter Selinger 2001-2013
</metadata>
<g transform="translate(0.000000,256.000000) scale(0.100000,-0.100000)"
fill="#000000" stroke="none">
<path d="M1158 2554 c-2 -1 -28 -5 -58 -9 -30 -3 -89 -15 -131 -25 -489 -124
-859 -522 -949 -1023 -22 -124 -20 -346 4 -462 76 -360 291 -669 591 -847 128
-76 307 -147 410 -162 22 -4 64 -10 94 -15 60 -9 293 -7 361 4 253 41 508 170
693 352 256 251 387 569 382 925 -2 146 -8 193 -41 314 -95 360 -341 659 -676
824 -44 22 -229 92 -238 90 -3 0 -25 4 -50 9 -86 20 -126 23 -257 26 -73 1
-134 1 -135 -1z"/>
</g>
</svg>
